<svg width="50" height="50" viewBox="0 0 50 50" fill="none" xmlns="http://www.w3.org/2000/svg">
<g clip-path="url(#clip0_1_1044)">
<rect width="50" height="50" fill="#FBE0E0"/>
<path d="M16.6437 16.3591C16.1242 16.6763 16.1023 17.5404 16.6164 17.8739C16.7531 17.9614 16.9719 17.9724 19.2305 17.9997C21.5875 18.0271 21.6969 18.0325 21.8828 18.1419C22.468 18.4864 22.468 19.263 21.8828 19.6075C21.6969 19.7169 21.5984 19.7224 18.3555 19.7497C15.2547 19.7771 15.0031 19.7825 14.8664 19.8755C14.3687 20.1982 14.3687 21.0513 14.8664 21.3739C15.0031 21.4669 15.3039 21.4724 19.668 21.4997C24.2344 21.5271 24.3219 21.5271 24.5078 21.6419C25.093 21.9864 25.093 22.763 24.5078 23.1075C24.3219 23.2169 24.2234 23.2224 20.9805 23.2497C17.8797 23.2771 17.6281 23.2825 17.4914 23.3755C16.9937 23.6982 16.9937 24.5513 17.4914 24.8739C17.6227 24.9614 17.8305 24.9724 19.668 24.9997C21.582 25.0271 21.7023 25.0325 21.8828 25.1419C22.468 25.4864 22.468 26.263 21.8828 26.6075C21.6969 26.7224 21.5984 26.7224 17.918 26.7497C14.3961 26.7771 14.1281 26.7825 13.9914 26.8755C13.4937 27.1982 13.4937 28.0513 13.9914 28.3739C14.1172 28.456 14.3031 28.4779 15.293 28.4997C16.3266 28.5216 16.4633 28.538 16.6328 28.6419C17.218 28.981 17.218 29.7685 16.6383 30.1075C16.4906 30.195 16.3102 30.2224 15.7305 30.2443C14.9375 30.2825 14.8008 30.3318 14.6094 30.6489C14.4617 30.8896 14.4617 31.3654 14.6094 31.606C14.6695 31.7044 14.7953 31.8302 14.8937 31.8904C15.0633 31.9888 15.1727 31.9997 16.4414 31.9997H17.8086L17.9891 32.4044C18.2133 32.8966 18.6562 33.3505 19.132 33.5693C19.5805 33.7771 20.2969 33.8099 20.8328 33.6458C21.5273 33.438 22.1398 32.9239 22.4625 32.2896L22.6047 31.9997H25.8969H29.1836L29.3641 32.4044C29.5883 32.8966 30.0312 33.3505 30.507 33.5693C30.9555 33.7771 31.6719 33.8099 32.2078 33.6458C32.9023 33.438 33.5148 32.9239 33.8375 32.2896L33.9797 31.9997H34.9805C35.9211 31.9997 35.9867 31.9943 36.1562 31.8794C36.5555 31.606 36.5281 31.7372 36.9055 28.3794C37.0914 26.6841 37.2445 25.1747 37.25 25.0216C37.25 24.7755 37.1297 24.4747 36.2602 22.506C35.7188 21.2755 35.2266 20.1927 35.1664 20.0997C34.9531 19.7497 34.9477 19.7497 32.2516 19.7497C29.8781 19.7497 29.8125 19.7497 29.8125 19.6458C29.8125 19.5857 29.8727 18.9841 29.9492 18.306C30.0586 17.3599 30.0805 17.0263 30.0367 16.8622C29.9766 16.6544 29.7797 16.4247 29.5555 16.3099C29.468 16.2661 27.6852 16.2497 23.1297 16.2497C16.9336 16.2497 16.8187 16.2497 16.6437 16.3591ZM33.9359 21.7568C33.9852 21.8661 34.3516 22.67 34.7453 23.5396L35.4562 25.1255L35.418 25.5029L35.3797 25.8747H33.482C32.443 25.8747 31.4914 25.8474 31.3766 25.82C31.0922 25.7544 30.9117 25.6177 30.775 25.3552L30.6656 25.1419L30.8352 23.6161C31.0211 21.9591 31.0266 21.9318 31.3984 21.6747C31.5734 21.5599 31.6281 21.5544 32.7109 21.5544H33.8375L33.9359 21.7568ZM20.7453 30.3646C20.8711 30.4357 21.0078 30.731 21.0078 30.9497C21.0078 31.2122 20.7617 31.6279 20.5047 31.7974C20.0891 32.0654 19.7391 31.9614 19.5805 31.5185C19.4547 31.1521 19.7828 30.5286 20.1875 30.3646C20.3734 30.2935 20.6086 30.2935 20.7453 30.3646ZM32.1203 30.3646C32.2461 30.4357 32.3828 30.731 32.3828 30.9497C32.3828 31.2122 32.1367 31.6279 31.8797 31.7974C31.4641 32.0654 31.1141 31.9614 30.9555 31.5185C30.8297 31.1521 31.1578 30.5286 31.5625 30.3646C31.7484 30.2935 31.9836 30.2935 32.1203 30.3646Z" fill="url(#paint0_linear_1_1044)"/>
<path d="M13.1438 23.3594C12.8813 23.5234 12.75 23.7695 12.75 24.125C12.75 24.4805 12.8813 24.7266 13.1438 24.8906C13.3023 24.9836 13.4227 25 14.0625 25C14.8883 25 15.0578 24.9453 15.2656 24.6063C15.4133 24.3602 15.4133 23.8898 15.2656 23.6438C15.0578 23.3047 14.8883 23.25 14.0625 23.25C13.4227 23.25 13.3023 23.2664 13.1438 23.3594Z" fill="url(#paint1_linear_1_1044)"/>
</g>
<defs>
<linearGradient id="paint0_linear_1_1044" x1="13.6182" y1="24.9999" x2="37.25" y2="24.9999" gradientUnits="userSpaceOnUse">
<stop stop-color="#E81212"/>
<stop offset="1" stop-color="#FCCD05"/>
</linearGradient>
<linearGradient id="paint1_linear_1_1044" x1="12.75" y1="24.125" x2="15.3764" y2="24.125" gradientUnits="userSpaceOnUse">
<stop stop-color="#E81212"/>
<stop offset="1" stop-color="#FCCD05"/>
</linearGradient>
<clipPath id="clip0_1_1044">
<rect width="50" height="50" rx="25" fill="white"/>
</clipPath>
</defs>
</svg>
