<svg width="50" height="50" viewBox="0 0 50 50" fill="none" xmlns="http://www.w3.org/2000/svg">
<g clip-path="url(#clip0_1_1034)">
<rect width="50" height="50" fill="#FBE0E0"/>
<path d="M13.1437 12.8594C12.6242 13.182 12.6023 14.0406 13.1164 14.3742C13.2367 14.4563 13.4226 14.4781 14.1719 14.5055C15.1289 14.5328 15.2766 14.5711 15.5226 14.8391C15.5828 14.9047 15.6648 15.0633 15.7031 15.1836C15.7359 15.3039 16.4359 18.2789 17.2562 21.8008L18.7492 28.1992L18.0875 28.8828C17.7211 29.2602 17.3601 29.6922 17.2781 29.8453C16.857 30.6274 16.857 31.6281 17.2781 32.4047C17.6445 33.0938 18.4976 33.6789 19.2195 33.7336L19.5641 33.7609L19.493 34.0399C19.1266 35.4672 20.1273 36.993 21.6094 37.2555C23.5562 37.5945 25.1914 35.7406 24.5953 33.8703L24.557 33.75H26.1375H27.718L27.6469 34.0344C27.2805 35.4344 28.243 36.9438 29.6922 37.2445C31.3164 37.5836 32.875 36.3149 32.875 34.6524C32.875 34.4719 32.8422 34.193 32.7984 34.0344L32.7273 33.75H33.8266C34.8273 33.75 34.9422 33.7391 35.1062 33.6406C35.6258 33.3234 35.6476 32.4594 35.1336 32.1258C34.9914 32.0328 34.5867 32.0274 27.1875 32C19.4492 31.9727 19.3945 31.9727 19.2031 31.8578C18.8258 31.6391 18.6453 31.1305 18.8258 30.7805C18.8586 30.7149 19.1703 30.3703 19.5203 30.0149L20.1601 29.375H26.4766C33.3344 29.375 33.05 29.3859 33.6461 29.0688C34.0617 28.85 34.5266 28.3578 34.7234 27.9422C34.8984 27.5758 37.3047 18.268 37.3047 17.9617C37.3047 17.7156 37.0805 17.3438 36.8672 17.2289C36.6922 17.1359 36.5336 17.125 35.0844 17.125H33.493L33.5914 17.6281C33.7883 18.6344 33.7117 19.9414 33.3891 20.9641C32.8312 22.7359 31.5133 24.2836 29.8398 25.1258C28.3031 25.8969 26.2906 26.0445 24.6445 25.5086C22.1344 24.6883 20.3133 22.5883 19.8812 20.018C19.7773 19.3781 19.7992 18.0328 19.925 17.4641L20.007 17.125H19.0172H18.0273L17.7101 15.818C17.5297 15.0742 17.3219 14.3742 17.2344 14.1774C17.0047 13.6961 16.5344 13.2367 15.993 12.9797L15.5664 12.7774L14.4453 12.7609C13.4008 12.7445 13.3133 12.7555 13.1437 12.8594ZM22.5281 33.9141C23.2336 34.3461 22.9328 35.4453 22.1125 35.4453C21.7023 35.4453 21.3906 35.2047 21.2812 34.7891C21.1008 34.1274 21.9265 33.5477 22.5281 33.9141ZM30.6765 33.9141C31.3875 34.3461 31.0812 35.4453 30.25 35.4453C29.7851 35.4453 29.4297 35.0899 29.4297 34.625C29.4297 34.1602 29.7851 33.8047 30.25 33.8047C30.3976 33.8047 30.5672 33.8484 30.6765 33.9141Z" fill="url(#paint0_linear_1_1034)"/>
<path d="M25.6562 13.707C23.7039 14.1445 22.2109 15.55 21.6531 17.4859C21.5437 17.8633 21.5273 18.0383 21.5273 18.875C21.5273 19.7117 21.5437 19.8867 21.6531 20.2641C22.1781 22.0797 23.5289 23.4414 25.3336 23.9664C25.9516 24.1414 27.2039 24.1742 27.882 24.0266C29.8016 23.6 31.2891 22.1891 31.8469 20.2641C31.9563 19.8867 31.9727 19.7117 31.9727 18.875C31.9727 18.0383 31.9563 17.8633 31.8469 17.4859C31.3219 15.6703 29.9711 14.3141 28.1664 13.7836C27.6359 13.6305 26.2031 13.5867 25.6562 13.707ZM29.2273 16.8188C29.4625 16.9172 29.6922 17.1906 29.7359 17.4313C29.8125 17.8469 29.7578 17.9234 27.9695 19.7063C26.1484 21.5164 26.1047 21.5547 25.6727 21.4344C25.3719 21.3578 23.3922 19.3781 23.3156 19.0773C23.157 18.4922 23.7477 17.907 24.3273 18.0656C24.4805 18.1039 24.7102 18.2898 25.2078 18.782L25.875 19.4438L27.1766 18.1531C27.8875 17.4367 28.5328 16.8297 28.6094 16.8023C28.8063 16.7258 29.025 16.7313 29.2273 16.8188Z" fill="url(#paint1_linear_1_1034)"/>
</g>
<defs>
<linearGradient id="paint0_linear_1_1034" x1="12.7422" y1="25.0272" x2="37.3047" y2="25.0272" gradientUnits="userSpaceOnUse">
<stop stop-color="#E81212"/>
<stop offset="1" stop-color="#FCCD05"/>
</linearGradient>
<linearGradient id="paint1_linear_1_1034" x1="21.5273" y1="18.8789" x2="31.9727" y2="18.8789" gradientUnits="userSpaceOnUse">
<stop stop-color="#E81212"/>
<stop offset="1" stop-color="#FCCD05"/>
</linearGradient>
<clipPath id="clip0_1_1034">
<rect width="50" height="50" rx="25" fill="white"/>
</clipPath>
</defs>
</svg>
