<svg width="50" height="50" viewBox="0 0 50 50" fill="none" xmlns="http://www.w3.org/2000/svg">
<g clip-path="url(#clip0_1_1067)">
<rect width="50" height="50" fill="#FBE0E0"/>
<path d="M23.4305 12.832C23.2445 12.8758 22.9109 13.0016 22.6922 13.1109C22.3422 13.2914 22.1016 13.5047 20.8164 14.7844L19.3398 16.25H24.125H28.9102L27.4336 14.7844C26.1484 13.5047 25.9078 13.2914 25.5633 13.1109C24.8961 12.7719 24.1633 12.6734 23.4305 12.832Z" fill="url(#paint0_linear_1_1067)"/>
<path d="M14.5437 18.1039C13.7508 18.3609 13.0727 19.0555 12.8375 19.8539C12.7609 20.1219 12.75 20.9641 12.75 27.6305C12.75 34.8164 12.7555 35.1227 12.8539 35.4398C13.1055 36.2437 13.7945 36.9273 14.6039 37.1625C14.8719 37.2391 15.8672 37.25 24.1305 37.25C33.0336 37.25 33.3672 37.2445 33.6898 37.1461C34.4937 36.8945 35.1773 36.2055 35.4125 35.3961C35.4836 35.15 35.5 34.7617 35.5 33.1156V31.1359L33.0555 31.1141C30.3813 31.0867 30.3484 31.0813 29.6375 30.7477C28.8828 30.3922 28.2102 29.6594 27.882 28.8555C27.7125 28.4344 27.707 28.3906 27.707 27.625C27.707 26.8867 27.718 26.8047 27.8602 26.4492C28.3742 25.1641 29.4352 24.3328 30.7805 24.1797C31.0484 24.1523 32.2133 24.125 33.3836 24.125H35.5V22.1398C35.5 20.4883 35.4836 20.1 35.4125 19.8539C35.1773 19.0445 34.4937 18.3555 33.6898 18.1039C33.3672 18.0055 33.0391 18 24.1086 18.0055C15.2875 18.0055 14.8391 18.0109 14.5437 18.1039Z" fill="url(#paint1_linear_1_1067)"/>
<path d="M30.3156 26.0395C29.6703 26.3622 29.3531 26.8817 29.3477 27.5981C29.3477 27.959 29.375 28.0903 29.4953 28.3473C29.6648 28.7083 29.993 29.0473 30.3484 29.2223L30.6055 29.3481L33.6406 29.3645C36.5938 29.3755 36.6813 29.3755 36.8562 29.2661C37.2227 29.0419 37.25 28.938 37.25 27.6255C37.25 26.313 37.2227 26.209 36.8562 25.9848C36.6813 25.8809 36.5719 25.8755 33.6625 25.8755H30.6492L30.3156 26.0395Z" fill="url(#paint2_linear_1_1067)"/>
</g>
<defs>
<linearGradient id="paint0_linear_1_1067" x1="19.3398" y1="14.5041" x2="28.9102" y2="14.5041" gradientUnits="userSpaceOnUse">
<stop stop-color="#E81212"/>
<stop offset="1" stop-color="#FCCD05"/>
</linearGradient>
<linearGradient id="paint1_linear_1_1067" x1="12.75" y1="27.627" x2="35.5" y2="27.627" gradientUnits="userSpaceOnUse">
<stop stop-color="#E81212"/>
<stop offset="1" stop-color="#FCCD05"/>
</linearGradient>
<linearGradient id="paint2_linear_1_1067" x1="29.3477" y1="27.6223" x2="37.25" y2="27.6223" gradientUnits="userSpaceOnUse">
<stop stop-color="#E81212"/>
<stop offset="1" stop-color="#FCCD05"/>
</linearGradient>
<clipPath id="clip0_1_1067">
<rect width="50" height="50" rx="25" fill="white"/>
</clipPath>
</defs>
</svg>
