<svg width="50" height="50" viewBox="0 0 50 50" fill="none" xmlns="http://www.w3.org/2000/svg">
<g clip-path="url(#clip0_1_1054)">
<rect width="50" height="50" fill="#FBE0E0"/>
<path d="M13.1437 12.8594C12.8812 13.0234 12.75 13.2695 12.75 13.625C12.75 13.9805 12.8812 14.2266 13.1437 14.3906C13.3133 14.4945 13.4227 14.5 14.8664 14.5C15.725 14.5 16.5234 14.5273 16.6766 14.5547C16.9719 14.6203 17.2125 14.8117 17.3164 15.0687C17.3547 15.1617 18.2023 18.3336 19.2086 22.118C20.6961 27.7289 21.0516 28.9922 21.1172 28.9703C21.1609 28.9594 21.3852 28.8773 21.6094 28.7953C21.8336 28.7187 22.1945 28.6203 22.4023 28.582C22.6156 28.5437 22.7797 28.4945 22.7797 28.4672C22.7742 28.4398 21.9266 25.2789 20.8984 21.4453C19.6242 16.693 18.9734 14.3687 18.8641 14.1555C18.5633 13.5539 18.0164 13.0891 17.3547 12.8648C17.043 12.7555 16.8898 12.75 15.1727 12.75C13.4227 12.75 13.3133 12.7555 13.1437 12.8594Z" fill="url(#paint0_linear_1_1054)"/>
<path d="M31.2674 16.1676C30.7916 16.2988 30.3924 16.4191 30.3815 16.4301C30.3705 16.441 30.6658 17.5949 31.0432 19.0004C31.4205 20.4004 31.7268 21.6363 31.7268 21.7457C31.7268 22.0957 31.4862 22.4129 31.1307 22.5332C30.9721 22.5879 30.808 22.566 30.0752 22.4238L29.2057 22.2488L29.058 22.3855C28.4729 22.9215 27.9315 23.3699 27.8112 23.4137C27.7346 23.4465 27.5651 23.4684 27.4283 23.4684C27.2205 23.4684 27.1494 23.4355 26.969 23.2605L26.7502 23.0582L26.0612 20.4605C25.6783 19.0332 25.3502 17.841 25.3283 17.8191C25.2846 17.7699 23.4744 18.2402 23.2283 18.366C22.933 18.5191 22.6104 18.8691 22.4572 19.2082C22.1838 19.8207 22.1729 19.7715 23.4088 24.398C24.0158 26.6676 24.5244 28.5707 24.5408 28.6199C24.5572 28.6746 24.6666 28.7402 24.7979 28.7785C25.3612 28.9262 26.0721 29.3254 26.6408 29.8121L26.9416 30.0691L31.0979 28.959C33.3838 28.3465 35.3635 27.8051 35.4948 27.7559C35.6315 27.7012 35.8502 27.5645 35.9815 27.4441C36.4791 26.9793 36.6705 26.3777 36.5229 25.727C36.3424 24.934 34.2369 17.141 34.144 16.9332C34.0018 16.5996 33.6518 16.2496 33.2854 16.0801C32.7932 15.8449 32.3721 15.8613 31.2674 16.1676Z" fill="url(#paint1_linear_1_1054)"/>
<path d="M27.8438 17.0872C27.3789 17.2075 26.9906 17.3114 26.9797 17.3168C26.9633 17.3278 27.9531 21.0247 27.9859 21.0575C27.9969 21.0684 28.1227 20.9809 28.2649 20.8606C28.407 20.7403 28.582 20.6145 28.6477 20.5762C28.7899 20.5051 29.1563 20.4997 29.457 20.5708C29.5774 20.5981 29.6813 20.609 29.6977 20.5981C29.7195 20.5708 28.7844 17.027 28.7242 16.9286C28.7024 16.8848 28.4234 16.9395 27.8438 17.0872Z" fill="url(#paint2_linear_1_1054)"/>
<path d="M32.1367 30.4414C29.8836 31.0484 28.0406 31.5734 28.0461 31.5953C28.0516 31.6227 28.1227 31.825 28.1992 32.0383C28.2758 32.257 28.3687 32.6234 28.407 32.8477C28.4508 33.1484 28.4945 33.2578 28.5547 33.2578C28.7516 33.2578 36.8016 31.1086 36.9219 31.0211C36.9984 30.9664 37.1187 30.8406 37.1844 30.7367C37.3594 30.4852 37.3375 29.982 37.1461 29.7086C36.9984 29.5008 36.643 29.3203 36.4023 29.3258C36.3148 29.3312 34.3953 29.8289 32.1367 30.4414Z" fill="url(#paint3_linear_1_1054)"/>
<path d="M22.3588 30.332C21.1831 30.6273 20.144 31.6664 19.8377 32.8531C19.7284 33.2797 19.7229 34.1547 19.8323 34.6195C20.1167 35.8172 21.1831 36.8836 22.3807 37.168C22.8292 37.2719 23.6713 37.2719 24.1198 37.168C25.3174 36.8836 26.3838 35.8172 26.6682 34.6195C26.7776 34.1547 26.7721 33.2797 26.6627 32.8531C26.4549 32.0602 25.9026 31.2781 25.2135 30.8187C24.601 30.4141 24.1745 30.2828 23.3596 30.2664C22.8948 30.2609 22.5721 30.2773 22.3588 30.332ZM23.6768 33.0391C24.3877 33.4711 24.0815 34.5703 23.2502 34.5703C22.7854 34.5703 22.4299 34.2148 22.4299 33.75C22.4299 33.2852 22.7854 32.9297 23.2502 32.9297C23.3979 32.9297 23.5674 32.9734 23.6768 33.0391Z" fill="url(#paint4_linear_1_1054)"/>
</g>
<defs>
<linearGradient id="paint0_linear_1_1054" x1="12.75" y1="20.8603" x2="22.7797" y2="20.8603" gradientUnits="userSpaceOnUse">
<stop stop-color="#E81212"/>
<stop offset="1" stop-color="#FCCD05"/>
</linearGradient>
<linearGradient id="paint1_linear_1_1054" x1="22.3076" y1="22.994" x2="36.5714" y2="22.994" gradientUnits="userSpaceOnUse">
<stop stop-color="#E81212"/>
<stop offset="1" stop-color="#FCCD05"/>
</linearGradient>
<linearGradient id="paint2_linear_1_1054" x1="26.9795" y1="18.9862" x2="29.698" y2="18.9862" gradientUnits="userSpaceOnUse">
<stop stop-color="#E81212"/>
<stop offset="1" stop-color="#FCCD05"/>
</linearGradient>
<linearGradient id="paint3_linear_1_1054" x1="28.0461" y1="31.2917" x2="37.3036" y2="31.2917" gradientUnits="userSpaceOnUse">
<stop stop-color="#E81212"/>
<stop offset="1" stop-color="#FCCD05"/>
</linearGradient>
<linearGradient id="paint4_linear_1_1054" x1="19.7529" y1="33.7557" x2="26.7476" y2="33.7557" gradientUnits="userSpaceOnUse">
<stop stop-color="#E81212"/>
<stop offset="1" stop-color="#FCCD05"/>
</linearGradient>
<clipPath id="clip0_1_1054">
<rect width="50" height="50" rx="25" fill="white"/>
</clipPath>
</defs>
</svg>
