<svg width="50" height="50" viewBox="0 0 50 50" fill="none" xmlns="http://www.w3.org/2000/svg">
<g clip-path="url(#clip0_1_1078)">
<rect width="50" height="50" fill="#FBE0E0"/>
<path d="M23.4693 12.8106C20.7295 13.1606 18.2193 14.3911 16.2779 16.3325C13.1772 19.4332 11.985 23.9067 13.117 28.1996C13.724 30.5184 15.1076 32.7223 16.9342 34.2864C18.799 35.8832 21.085 36.895 23.524 37.1957C24.3115 37.2887 25.9139 37.2668 26.7506 37.141C28.0467 36.9496 28.2709 36.8567 28.4951 36.4137C28.6537 36.0965 28.6209 35.752 28.4076 35.5004C28.1068 35.1395 27.8662 35.1012 27.0459 35.2598C24.6998 35.7192 22.4357 35.4239 20.3248 34.3848C17.3553 32.9192 15.3373 30.3051 14.6264 26.9856C14.4842 26.3293 14.4732 26.2036 14.4787 24.9457C14.4787 23.7043 14.4897 23.5567 14.6209 22.9223C15.0584 20.8715 15.9772 19.1215 17.3662 17.6832C19.9201 15.0364 23.535 13.9207 27.1279 14.6645C30.7209 15.4137 33.7451 18.1098 34.9209 21.6262C35.2764 22.6817 35.3967 23.4145 35.4295 24.645C35.4623 25.8536 35.3912 26.5262 35.1397 27.5434C34.8607 28.6371 34.3248 29.8457 33.6904 30.7918L33.3951 31.2293L32.9576 30.8028C32.4381 30.2887 32.367 30.2504 31.9897 30.2504C31.6451 30.2504 31.3936 30.3817 31.235 30.6442C31.1311 30.8137 31.1256 30.9231 31.1256 32.4379C31.1256 33.9528 31.1311 34.0621 31.235 34.2317C31.2951 34.3301 31.4209 34.4559 31.5193 34.5161C31.6889 34.62 31.7982 34.6254 33.3131 34.6254C34.8279 34.6254 34.9373 34.62 35.1068 34.5161C35.3693 34.3575 35.5006 34.1059 35.5006 33.7614C35.5006 33.395 35.424 33.2528 35.0193 32.8535L34.6912 32.5364L35.1397 31.8692C36.1787 30.3106 36.835 28.6262 37.1193 26.7504C37.2397 25.9793 37.2561 24.1692 37.1522 23.4418C36.3592 17.8746 32.2139 13.6637 26.7232 12.8543C25.9631 12.745 24.1803 12.7176 23.4693 12.8106Z" fill="url(#paint0_linear_1_1078)"/>
<path d="M19.925 18.9898C19.5367 19.143 19.1375 19.5422 18.9898 19.9414C18.875 20.2422 18.875 20.3133 18.875 25C18.875 29.6867 18.875 29.7578 18.9898 30.0586C19.143 30.4633 19.5367 30.857 19.9414 31.0102C20.2422 31.125 20.3133 31.125 25 31.125C29.6867 31.125 29.7578 31.125 30.0586 31.0102C30.4633 30.857 30.857 30.4633 31.0102 30.0586C31.125 29.7578 31.125 29.6867 31.125 25C31.125 20.3133 31.125 20.2422 31.0102 19.9414C30.857 19.5367 30.4633 19.143 30.0586 18.9898C29.7906 18.8859 29.632 18.875 28.6914 18.875H27.6305L27.6141 21.593C27.5977 24.2289 27.5922 24.3219 27.4828 24.5078C27.3242 24.7812 27.0562 24.9453 26.7664 24.9453C26.5805 24.9453 26.3617 24.8633 25.7656 24.5625L25 24.1797L24.2344 24.5625C23.6383 24.8633 23.4195 24.9453 23.2336 24.9453C22.9437 24.9453 22.6758 24.7812 22.5172 24.5078C22.4078 24.3219 22.4023 24.2289 22.3859 21.593L22.3695 18.875L21.2922 18.8805C20.3461 18.8805 20.182 18.8914 19.925 18.9898Z" fill="url(#paint1_linear_1_1078)"/>
<path d="M24.125 20.8164V22.7578L24.4531 22.5938C24.6555 22.4898 24.8633 22.4297 25 22.4297C25.1367 22.4297 25.3445 22.4898 25.5469 22.5938L25.875 22.7578V20.8164V18.875H25H24.125V20.8164Z" fill="url(#paint2_linear_1_1078)"/>
</g>
<defs>
<linearGradient id="paint0_linear_1_1078" x1="12.6973" y1="25.0036" x2="37.2208" y2="25.0036" gradientUnits="userSpaceOnUse">
<stop stop-color="#E81212"/>
<stop offset="1" stop-color="#FCCD05"/>
</linearGradient>
<linearGradient id="paint1_linear_1_1078" x1="18.875" y1="25" x2="31.125" y2="25" gradientUnits="userSpaceOnUse">
<stop stop-color="#E81212"/>
<stop offset="1" stop-color="#FCCD05"/>
</linearGradient>
<linearGradient id="paint2_linear_1_1078" x1="24.125" y1="20.8164" x2="25.875" y2="20.8164" gradientUnits="userSpaceOnUse">
<stop stop-color="#E81212"/>
<stop offset="1" stop-color="#FCCD05"/>
</linearGradient>
<clipPath id="clip0_1_1078">
<rect width="50" height="50" rx="25" fill="white"/>
</clipPath>
</defs>
</svg>
